<svg xmlns="http://www.w3.org/2000/svg" viewBox="0 0 18 18" width="18" height="18">
	<defs>
		<clipPath clipPathUnits="userSpaceOnUse" id="cp1">
			<path d="M-337 -279L38 -279L38 388L-337 388Z" />
		</clipPath>
	</defs>
	<style>
		tspan { white-space:pre }
		.shp0 { fill: #ffffff } 
	</style>
	<g id="Page 2" clip-path="url(#cp1)">
		<g id="DashBoard">
			<path id="component_close_normal" fill-rule="evenodd" class="shp0" d="M9 18C4.03 18 0 13.97 0 9C0 4.03 4.03 0 9 0C13.97 0 18 4.03 18 9C18 13.97 13.97 18 9 18ZM10.36 9L12.63 6.73C13.01 6.36 13.02 5.74 12.64 5.36C12.26 4.98 11.65 4.99 11.27 5.37L9 7.64L6.73 5.37C6.36 4.99 5.74 4.98 5.36 5.36C4.98 5.74 4.99 6.35 5.37 6.73L7.64 9L5.37 11.27C4.99 11.64 4.98 12.26 5.36 12.64C5.74 13.02 6.35 13.01 6.73 12.63L9 10.36L11.27 12.63C11.64 13.01 12.26 13.02 12.64 12.64C13.02 12.26 13.01 11.65 12.63 11.27L10.36 9Z" />
		</g>
	</g>
</svg>