<svg xmlns="http://www.w3.org/2000/svg" viewBox="0 0 31 28" width="31" height="28">
	<defs>
		<clipPath clipPathUnits="userSpaceOnUse" id="cp1">
			<path d="M-191 -333L184 -333L184 334L-191 334Z" />
		</clipPath>
	</defs>
	<style>
		tspan { white-space:pre }
		.shp0 { fill: #9ecbda } 
	</style>
	<g id="Page 1" clip-path="url(#cp1)">
		<g id="Body">
			<g id="ManageServiceCard">
				<g id="Deals">
					<g id="component_clipart_deals">
						<path id="Path 1028" fill-rule="evenodd" class="shp0" d="M1.43 6.28C0.86 5.71 0.86 4.77 1.43 4.19L2.69 2.93C3.27 2.35 4.2 2.35 4.78 2.93L6.11 4.27L9.96 0.43C10.24 0.15 10.61 0 11 0C11.4 0 11.77 0.16 12.05 0.43L13.3 1.69C13.58 1.97 13.73 2.34 13.73 2.74C13.73 3.13 13.58 3.51 13.3 3.78L7.15 9.92C6.57 10.5 5.63 10.5 5.05 9.92L1.43 6.28ZM2.54 5.24L6.11 8.82L12.2 2.74L11 1.54L6.63 5.87C6.49 6.01 6.3 6.09 6.1 6.09C5.89 6.09 5.7 6.01 5.56 5.87L3.73 4.05L2.54 5.24Z" />
						<path id="Path 1029" fill-rule="evenodd" class="shp0" d="M1.24 11.78C0.94 11.47 0.94 10.96 1.24 10.64C1.54 10.33 2.02 10.33 2.32 10.64L5.38 13.86C6.12 13.21 7.15 13.06 8.03 13.49C8.9 13.91 9.47 14.82 9.49 15.83C10.83 15.86 11.91 17 11.94 18.41C13.3 18.44 14.39 19.61 14.38 21.04C14.38 21.07 14.38 21.1 14.38 21.14C15.16 21.19 15.88 21.63 16.3 22.32C16.73 23 16.83 23.86 16.57 24.63L16.59 24.63L17.99 26.1C18.36 26.5 18.97 26.5 19.34 26.1C19.72 25.71 19.72 25.07 19.34 24.68L18.25 23.53C17.95 23.22 17.95 22.71 18.25 22.39C18.55 22.08 19.04 22.08 19.34 22.39L20.43 23.54L20.5 23.62L20.55 23.66C20.94 24.03 21.54 24.02 21.91 23.63C22.28 23.24 22.29 22.61 21.93 22.21L20.09 20.34C19.79 20.03 19.78 19.52 20.07 19.2C20.37 18.89 20.85 18.88 21.16 19.19L22.99 21.06C23.06 21.13 23.12 21.2 23.17 21.27C23.21 21.3 23.24 21.33 23.28 21.36C23.66 21.75 24.26 21.75 24.65 21.36C25.03 20.96 25.03 20.31 24.65 19.91L21.37 16.49C21.07 16.18 21.07 15.67 21.37 15.35C21.67 15.04 22.15 15.04 22.45 15.35L24.48 17.46C24.5 17.48 24.52 17.49 24.54 17.51C24.89 17.91 25.48 17.96 25.89 17.64C26.11 17.45 26.24 17.18 26.25 16.9C26.26 16.61 26.16 16.33 25.97 16.12L19.84 9.69C19.02 8.82 18.32 8.85 17.44 9.78L14.84 12.55C14.37 13.05 13.74 13.32 13.07 13.32C12.05 13.33 11.13 12.68 10.74 11.7C10.36 10.71 10.57 9.57 11.3 8.82L16.18 3.67C17.41 2.39 19.23 1.96 20.86 2.56C21.49 2.77 22.19 2.59 22.64 2.08L23.18 1.52C23.48 1.2 23.96 1.2 24.26 1.52C24.56 1.83 24.56 2.34 24.26 2.66L23.73 3.22C22.86 4.16 21.55 4.49 20.36 4.08C19.28 3.67 18.07 3.96 17.26 4.81L12.38 9.94C12.2 10.14 12.1 10.4 12.1 10.67C12.1 10.94 12.2 11.2 12.38 11.39C12.76 11.79 13.38 11.79 13.76 11.39L16.36 8.65C17.84 7.1 19.5 7.06 20.92 8.56L25.94 13.82L29.69 9.88C29.99 9.56 30.48 9.56 30.78 9.88C31.07 10.19 31.07 10.7 30.78 11.02L27.02 14.96L27.06 15C27.56 15.53 27.82 16.25 27.79 16.99C27.75 17.73 27.42 18.42 26.88 18.89C26.65 19.09 26.4 19.23 26.13 19.33C26.56 20.14 26.55 21.13 26.11 21.94C25.66 22.74 24.85 23.24 23.96 23.24C23.88 23.24 23.79 23.24 23.71 23.24C23.56 24.56 22.49 25.55 21.23 25.55L21.15 25.55C21.09 26.58 20.46 27.47 19.54 27.83C18.62 28.2 17.59 27.96 16.9 27.22L15.67 25.94L15.39 26.24C14.92 26.74 14.27 27.03 13.6 27.02C12.41 27.02 11.39 26.13 11.16 24.9C10.99 24.93 10.83 24.95 10.67 24.95C9.5 24.95 8.5 24.11 8.23 22.92C7.37 23.17 6.45 22.91 5.81 22.24C5.18 21.58 4.94 20.61 5.17 19.7C4.29 19.49 3.58 18.78 3.33 17.86C3.08 16.95 3.33 15.96 3.97 15.28L4.28 14.96L1.24 11.78ZM15.18 23.75C15.18 23.33 14.95 22.96 14.58 22.8C14.22 22.65 13.8 22.73 13.52 23.02L12.91 23.67C12.55 24.07 12.56 24.7 12.94 25.09C13.31 25.48 13.91 25.49 14.29 25.11L14.9 24.47C15.08 24.28 15.19 24.02 15.19 23.75L15.18 23.75ZM12.85 21.03C12.85 20.62 12.62 20.24 12.25 20.08C11.89 19.93 11.47 20.01 11.19 20.31L9.97 21.59C9.69 21.89 9.61 22.33 9.76 22.71C9.91 23.09 10.27 23.33 10.66 23.33C10.92 23.34 11.17 23.23 11.35 23.04L11.83 22.52L12.45 21.88L12.58 21.74C12.76 21.55 12.86 21.29 12.86 21.02L12.85 21.03ZM10.42 18.44C10.42 18.03 10.18 17.66 9.82 17.5C9.45 17.34 9.03 17.43 8.76 17.72L8.32 18.18L7.52 19.01L6.91 19.66C6.53 20.06 6.53 20.7 6.91 21.1C7.29 21.5 7.91 21.5 8.29 21.1L8.9 20.46L10.13 19.17C10.31 18.98 10.41 18.72 10.41 18.45L10.42 18.44ZM6.28 15.13L5.06 16.42C4.68 16.82 4.68 17.47 5.06 17.87C5.24 18.06 5.49 18.17 5.75 18.17C6 18.17 6.24 18.06 6.43 17.87L7.27 16.98L7.66 16.57C7.94 16.28 8.03 15.84 7.87 15.46C7.72 15.08 7.37 14.83 6.97 14.83C6.71 14.83 6.46 14.94 6.28 15.13Z" />
					</g>
				</g>
			</g>
		</g>
	</g>
</svg>