<svg xmlns="http://www.w3.org/2000/svg" viewBox="0 0 11 14" width="11" height="14">
	<defs>
		<clipPath clipPathUnits="userSpaceOnUse" id="cp1">
			<path d="M-21 -409L354 -409L354 258L-21 258Z" />
		</clipPath>
	</defs>
	<style>
		tspan { white-space:pre }
		.shp0 { fill: #9ecbda } 
	</style>
	<g id="Page 3" clip-path="url(#cp1)">
		<g id="Body">
			<g id="ManageServiceCard">
				<g id="Invoice">
					<g id="component_clipart_invoice">
						<path id="Path 1353" class="shp0" d="M3 3.87L4.08 3.87L4.08 4.6C4.39 4.74 4.65 4.98 4.78 5.31L3.79 5.71C3.75 5.61 3.61 5.53 3.46 5.57C3.31 5.61 3.25 5.71 3.27 5.82C3.29 5.93 3.4 6.02 3.56 6.01L3.59 6.01C4.2 6.05 4.75 6.43 4.86 7.04C4.97 7.64 4.62 8.22 4.07 8.45L4.07 9.18L3 9.18L3 8.45C2.69 8.32 2.43 8.07 2.29 7.74L3.29 7.34C3.33 7.45 3.47 7.52 3.62 7.48C3.76 7.45 3.82 7.34 3.8 7.23C3.78 7.12 3.67 7.03 3.52 7.04L3.48 7.04C2.88 7.01 2.33 6.62 2.22 6.01C2.11 5.41 2.46 4.83 3 4.6L3 3.87Z" />
						<path id="Path 1354" fill-rule="evenodd" class="shp0" d="M2.5 1C4.43 1 6.41 1 8.3 1C9 1.03 9.58 1.4 9.94 1.87C10.31 2.36 10.5 2.95 10.5 3.5L10.5 5L7 5L6.99 11.53L5.49 13L4.49 12.02L3.5 13L2.5 12.02L1.5 13L0 11.53L0 3.47C0 2.11 1.13 1 2.5 1L2.5 1ZM8.23 2C7.82 2 7.55 2.15 7.34 2.39C7.13 2.64 7 3.02 7 3.46L7 4L9.5 4L9.5 3.5C9.5 3.19 9.37 2.78 9.14 2.48C8.92 2.19 8.63 2 8.24 2L8.23 2L8.23 2ZM2.5 2.01C1.74 2 1.02 2.64 1 3.47L1 11.11L1.5 11.6L2.5 10.62L3.5 11.6L4.49 10.62L5.49 11.6L5.99 11.11L6 3.47C6 2.93 6.16 2.43 6.44 2.01L2.5 2.01L2.5 2.01Z" />
					</g>
				</g>
			</g>
		</g>
	</g>
</svg>