<svg xmlns="http://www.w3.org/2000/svg" viewBox="0 0 18 4" width="18" height="4">
	<defs>
		<clipPath clipPathUnits="userSpaceOnUse" id="cp1">
			<path d="M-314 -508L61 -508L61 159L-314 159Z" />
		</clipPath>
	</defs>
	<style>
		tspan { white-space:pre }
		.shp0 { fill: #008ab8 } 
	</style>
	<g id="Page 1" clip-path="url(#cp1)">
		<g id="Body">
			<g id="ManageServiceCard">
				<g id="Group 1204">
					<g id="Tab_more_normal">
						<path id="Ellipse 2" class="shp0" d="M2 4C0.89 4 0 3.11 0 2C0 0.89 0.89 0 2 0C3.11 0 4 0.89 4 2C4 3.11 3.11 4 2 4Z" />
						<path id="Ellipse 3" class="shp0" d="M9 4C7.89 4 7 3.11 7 2C7 0.89 7.89 0 9 0C10.11 0 11 0.89 11 2C11 3.11 10.11 4 9 4Z" />
						<path id="Path 2" class="shp0" d="M16 0C17.1 0 18 0.9 18 2C18 3.1 17.1 4 16 4C14.9 4 14 3.1 14 2C14 0.9 14.9 0 16 0Z" />
					</g>
				</g>
			</g>
		</g>
	</g>
</svg>