<svg xmlns="http://www.w3.org/2000/svg" viewBox="0 0 13 13" width="13" height="13">
	<defs>
		<clipPath clipPathUnits="userSpaceOnUse" id="cp1">
			<path d="M-20 -416L355 -416L355 251L-20 251Z" />
		</clipPath>
	</defs>
	<style>
		tspan { white-space:pre }
		.shp0 { fill: #9ecbda } 
	</style>
	<g id="Page 1" clip-path="url(#cp1)">
		<g id="Body">
			<g id="ManageServiceCard">
				<g id="ServiceDetails">
					<g id="Time">
						<g id="component_clipart_time">
							<path id="Path 1338" fill-rule="evenodd" class="shp0" d="M6 0C9.31 0 12 2.69 12 6C12 9.31 9.31 12 6 12C2.69 12 0 9.31 0 6C0 2.69 2.69 0 6 0ZM10.6 6C10.6 3.46 8.54 1.4 6 1.4C3.46 1.4 1.4 3.46 1.4 6C1.4 8.54 3.46 10.6 6 10.6C8.54 10.6 10.6 8.54 10.6 6Z" />
							<path id="Path 1339" class="shp0" d="M8.18 5.41L6.7 5.41L6.7 3.77C6.7 3.41 6.4 3.11 6.04 3.11C5.68 3.11 5.38 3.41 5.38 3.77L5.38 6.07C5.38 6.43 5.68 6.73 6.04 6.73L8.18 6.73C8.54 6.73 8.83 6.43 8.83 6.07C8.83 5.71 8.54 5.41 8.18 5.41Z" />
						</g>
					</g>
				</g>
			</g>
		</g>
	</g>
</svg>